<svg width="442" height="92" viewBox="0 0 442 92" fill="none" xmlns="http://www.w3.org/2000/svg">
<g clip-path="url(#clip0_2159_257)">
<path d="M38.6731 18.8005C51.0178 18.8005 61.0602 28.81 61.0602 41.1141V89.289H78.1797V41.1141C78.1797 19.3696 60.4938 1.7417 38.6777 1.7417H0V89.289H17.1195V18.8005H38.6777" fill="#17130D"/>
<path d="M90.1797 45.5154C90.1797 19.2778 109.519 0.00231934 136.92 0.00231934C164.321 0.00231934 183.66 19.2778 183.66 45.5154C183.66 71.7529 164.321 91.0284 136.92 91.0284C109.519 91.0284 90.1797 71.7529 90.1797 45.5154ZM166.2 45.5154C166.2 28.3786 154.38 15.9321 136.92 15.9321C119.46 15.9321 107.64 28.3831 107.64 45.5154C107.64 62.6476 119.46 75.2317 136.92 75.2317C154.38 75.2317 166.2 62.6476 166.2 45.5154Z" fill="#17130D"/>
<path d="M195.66 1.7417H226.819C257.577 1.7417 273.693 19.2778 273.693 45.5154C273.693 71.7529 257.577 89.289 226.819 89.289H195.66V1.7417ZM226.819 73.4923C247.102 73.4923 256.232 62.5145 256.232 45.5154C256.232 28.5162 247.102 17.6715 226.819 17.6715H212.853V73.4923H226.819Z" fill="#17130D"/>
<path d="M325.199 72.2302C312.854 72.2302 302.812 62.2207 302.812 49.9166V18.8051V1.7417H285.693V49.9166C285.693 71.6611 303.378 89.289 325.194 89.289H363.868V1.74629H346.748V18.8097V72.2348H325.19" fill="#17130D"/>
<path d="M375.868 63.9899H392.656C392.789 70.9521 398.029 75.6378 408.504 75.6378C418.979 75.6378 424.353 70.9521 424.353 63.9899C424.353 56.3578 416.161 54.8846 406.626 53.1452C393.328 50.7358 377.617 47.9225 377.617 27.5777C377.617 11.3817 389.976 0 408.642 0C427.309 0 438.995 10.8447 439.667 26.9076H423.418C423.285 20.2163 418.316 15.3928 408.78 15.3928C399.245 15.3928 394.276 20.6156 394.276 27.0407C394.276 34.6729 402.468 36.1415 412.004 37.8855C425.301 40.2949 441.15 43.1082 441.15 63.453C441.15 80.4521 428.124 91.0307 408.513 91.0307C388.903 91.0307 376.282 80.7229 375.877 63.9899H375.868Z" fill="#17130D"/>
</g>
<defs>
<clipPath id="clip0_2159_257">
<rect width="441.15" height="91.0307" fill="white"/>
</clipPath>
</defs>
</svg>
